<svg width="40" height="40" viewBox="0 0 40 40" fill="none" xmlns="http://www.w3.org/2000/svg">
<rect width="40" height="40" rx="20" fill="url(#paint0_linear_246_1548)"/>
<path d="M17.3099 19.1693H15.9766C14.3632 19.1693 13.4766 18.2826 13.4766 16.6693V15.3359C13.4766 13.7226 14.3632 12.8359 15.9766 12.8359H17.3099C18.9232 12.8359 19.8099 13.7226 19.8099 15.3359V16.6693C19.8099 18.2826 18.9232 19.1693 17.3099 19.1693ZM15.9766 13.8359C14.9232 13.8359 14.4766 14.2826 14.4766 15.3359V16.6693C14.4766 17.7226 14.9232 18.1693 15.9766 18.1693H17.3099C18.3632 18.1693 18.8099 17.7226 18.8099 16.6693V15.3359C18.8099 14.2826 18.3632 13.8359 17.3099 13.8359H15.9766Z" fill="white"/>
<path d="M15.9766 13.8359C14.9232 13.8359 14.4766 14.2826 14.4766 15.3359V16.6693C14.4766 17.7226 14.9232 18.1693 15.9766 18.1693H17.3099C18.3632 18.1693 18.8099 17.7226 18.8099 16.6693V15.3359C18.8099 14.2826 18.3632 13.8359 17.3099 13.8359H15.9766Z" fill="white"/>
<path d="M25.3099 19.1693H23.9766C22.3632 19.1693 21.4766 18.2826 21.4766 16.6693V15.3359C21.4766 13.7226 22.3632 12.8359 23.9766 12.8359H25.3099C26.9232 12.8359 27.8099 13.7226 27.8099 15.3359V16.6693C27.8099 18.2826 26.9232 19.1693 25.3099 19.1693ZM23.9766 13.8359C22.9232 13.8359 22.4766 14.2826 22.4766 15.3359V16.6693C22.4766 17.7226 22.9232 18.1693 23.9766 18.1693H25.3099C26.3632 18.1693 26.8099 17.7226 26.8099 16.6693V15.3359C26.8099 14.2826 26.3632 13.8359 25.3099 13.8359H23.9766Z" fill="white"/>
<path d="M25.3099 27.1693H23.9766C22.3632 27.1693 21.4766 26.2826 21.4766 24.6693V23.3359C21.4766 21.7226 22.3632 20.8359 23.9766 20.8359H25.3099C26.9232 20.8359 27.8099 21.7226 27.8099 23.3359V24.6693C27.8099 26.2826 26.9232 27.1693 25.3099 27.1693ZM23.9766 21.8359C22.9232 21.8359 22.4766 22.2826 22.4766 23.3359V24.6693C22.4766 25.7226 22.9232 26.1693 23.9766 26.1693H25.3099C26.3632 26.1693 26.8099 25.7226 26.8099 24.6693V23.3359C26.8099 22.2826 26.3632 21.8359 25.3099 21.8359H23.9766Z" fill="white"/>
<path d="M23.9766 21.8359C22.9232 21.8359 22.4766 22.2826 22.4766 23.3359V24.6693C22.4766 25.7226 22.9232 26.1693 23.9766 26.1693H25.3099C26.3632 26.1693 26.8099 25.7226 26.8099 24.6693V23.3359C26.8099 22.2826 26.3632 21.8359 25.3099 21.8359H23.9766Z" fill="white"/>
<path d="M17.3099 27.1693H15.9766C14.3632 27.1693 13.4766 26.2826 13.4766 24.6693V23.3359C13.4766 21.7226 14.3632 20.8359 15.9766 20.8359H17.3099C18.9232 20.8359 19.8099 21.7226 19.8099 23.3359V24.6693C19.8099 26.2826 18.9232 27.1693 17.3099 27.1693ZM15.9766 21.8359C14.9232 21.8359 14.4766 22.2826 14.4766 23.3359V24.6693C14.4766 25.7226 14.9232 26.1693 15.9766 26.1693H17.3099C18.3632 26.1693 18.8099 25.7226 18.8099 24.6693V23.3359C18.8099 22.2826 18.3632 21.8359 17.3099 21.8359H15.9766Z" fill="white"/>
<defs>
<linearGradient id="paint0_linear_246_1548" x1="37" y1="6.5" x2="5" y2="30" gradientUnits="userSpaceOnUse">
<stop stop-color="#C254F2"/>
<stop offset="1" stop-color="#4F0EC7"/>
</linearGradient>
</defs>
</svg>
