<svg width="40" height="40" viewBox="0 0 40 40" fill="none" xmlns="http://www.w3.org/2000/svg">
<rect width="40" height="40" rx="20" fill="url(#paint0_linear_246_1536)"/>
<path d="M24.2 25.1192H22.1L20.3521 25.6488C19.7375 25.8038 19.3 26.4232 19.3 27.1388C19.3 27.3413 19.3708 27.5354 19.4968 27.6785C19.6228 27.8217 19.7938 27.9021 19.972 27.9021H26.328C26.699 27.9021 27 27.5602 27 27.1388C27 26.7916 26.8957 26.4547 26.7045 26.1838C26.5132 25.9129 26.2463 25.7242 25.9479 25.6488L24.2 25.1192Z" fill="white"/>
<path d="M24.2 25.1192L24.3946 24.0172C24.4968 23.4344 24.7712 22.8961 24.8692 22.3125C24.8902 22.1911 24.9005 22.0666 24.9 21.9388C24.8997 21.6622 24.8486 21.3886 24.7499 21.1357C24.6512 20.8828 24.5071 20.656 24.3268 20.47C24.1465 20.284 23.934 20.1427 23.703 20.0553C23.4719 19.9679 23.2273 19.9362 22.9848 19.9623C22.7423 19.9885 22.5073 20.0718 22.2948 20.207C22.0823 20.3422 21.897 20.5263 21.7507 20.7475C21.6044 20.9687 21.5004 21.2222 21.4453 21.4917C21.3903 21.7611 21.3853 22.0407 21.4308 22.3125C21.5288 22.8969 21.8032 23.4336 21.9061 24.0172L22.1 25.1192H24.2Z" fill="white"/>
<path d="M24.2 25.1192L24.3946 24.0172C24.4968 23.4344 24.7712 22.8961 24.8692 22.3125C24.8902 22.1911 24.9005 22.0666 24.9 21.9388C24.8997 21.6622 24.8486 21.3886 24.7499 21.1357C24.6512 20.8828 24.5071 20.656 24.3268 20.47C24.1465 20.284 23.934 20.1427 23.703 20.0553C23.4719 19.9679 23.2273 19.9362 22.9848 19.9623C22.7423 19.9885 22.5073 20.0718 22.2948 20.207C22.0823 20.3422 21.897 20.5263 21.7507 20.7475C21.6044 20.9687 21.5004 21.2222 21.4453 21.4917C21.3903 21.7611 21.3853 22.0407 21.4308 22.3125C21.5288 22.8969 21.8032 23.4336 21.9061 24.0172L22.1 25.1192M24.2 25.1192H22.1M24.2 25.1192L25.9479 25.6488C26.2463 25.7242 26.5132 25.9129 26.7045 26.1838C26.8957 26.4547 27 26.7916 27 27.1388C27 27.5602 26.699 27.9021 26.328 27.9021H19.972C19.7938 27.9021 19.6228 27.8217 19.4968 27.6785C19.3708 27.5354 19.3 27.3413 19.3 27.1388C19.3 26.4232 19.7375 25.8038 20.3521 25.6488L22.1 25.1192M23.5 17.5657V16.7706C23.5 14.5221 23.5 13.397 22.8847 12.6989C22.2701 12 21.2796 12 19.3 12H17.2C15.2204 12 14.2299 12 13.6153 12.6989C13 13.397 13 14.5221 13 16.7706V23.1315C13 25.38 13 26.5051 13.6153 27.2032C14.2299 27.9021 15.2204 27.9021 17.2 27.9021" stroke="white" stroke-width="1.18421" stroke-linecap="round" stroke-linejoin="round"/>
<path d="M16.5047 17.3002C16.5047 17.3002 16.9422 17.3002 17.3797 18.3601C17.3797 18.3601 18.7692 15.71 20.0047 15.1797M15.8047 21.5405H18.6047M15.8047 23.9258H18.6047" stroke="white" stroke-width="1.18421" stroke-linecap="round" stroke-linejoin="round"/>
<defs>
<linearGradient id="paint0_linear_246_1536" x1="35" y1="7.5" x2="-8" y2="42" gradientUnits="userSpaceOnUse">
<stop stop-color="#BBFBB3"/>
<stop offset="1" stop-color="#0E6003"/>
</linearGradient>
</defs>
</svg>
