<svg width="109" height="82" viewBox="0 0 109 82" fill="none" xmlns="http://www.w3.org/2000/svg">
<path opacity="0.1" d="M20.174 81.5H0C6.0221 76.1199 10.639 71.0388 13.8508 66.2565C17.2634 61.4742 19.6722 57.2897 21.0773 53.703C22.6832 50.3155 23.4862 47.6255 23.4862 45.6328C23.6869 43.441 23.7873 42.1458 23.7873 41.7472C23.5866 41.548 22.3821 41.4483 20.174 41.4483C17.9659 41.4483 15.5571 40.8506 12.9475 39.655C10.3379 38.6587 7.9291 36.8653 5.72099 34.2749C3.71363 31.4852 2.70994 27.4004 2.70994 22.0203C2.50921 15.4446 4.91805 10.2638 9.93647 6.47785C15.1556 2.49262 20.7762 0.5 26.7983 0.5C34.4263 0.5 40.4484 3.0904 44.8646 8.27121C49.4816 13.2528 51.7901 19.928 51.7901 28.2971C51.7901 34.4742 50.4853 40.452 47.8757 46.2306C45.2661 52.0092 42.1547 57.2897 38.5414 62.072C35.1289 67.0535 31.616 71.238 28.0028 74.6255C24.5902 78.0129 21.9807 80.3044 20.174 81.5ZM77.384 81.5H57.2099C63.232 76.1199 67.849 71.0388 71.0608 66.2565C74.4733 61.4742 76.8821 57.2897 78.2873 53.703C79.8932 50.3155 80.6961 47.6255 80.6961 45.6328C80.8969 43.441 80.9972 42.1458 80.9972 41.7472C80.7965 41.548 79.5921 41.4483 77.384 41.4483C75.1759 41.4483 72.767 40.8506 70.1575 39.655C67.5479 38.6587 65.139 36.8653 62.9309 34.2749C60.9236 31.4852 59.9199 27.4004 59.9199 22.0203C59.7192 15.4446 62.128 10.2638 67.1464 6.47785C72.3656 2.49262 77.9862 0.5 84.0083 0.5C91.6363 0.5 97.6584 3.0904 102.075 8.27121C106.692 13.2528 109 19.928 109 28.2971C109 34.4742 107.695 40.452 105.086 46.2306C102.476 52.0092 99.3646 57.2897 95.7514 62.072C92.3389 67.0535 88.826 71.238 85.2127 74.6255C81.8002 78.0129 79.1906 80.3044 77.384 81.5Z" fill="#7E8491"/>
</svg>
